<?xml version="1.0" encoding="UTF-8" standalone="no"?>
<!-- Created with Inkscape (http://www.inkscape.org/) -->

<svg
   width="1024"
   height="1024"
   viewBox="0 0 270.93333 270.93333"
   version="1.1"
   id="svg5"
   inkscape:version="1.1.1 (3bf5ae0d25, 2021-09-20)"
   sodipodi:docname="logo.svg"
   inkscape:export-filename="C:\Users\jack\Desktop\havn.png"
   inkscape:export-xdpi="96"
   inkscape:export-ydpi="96"
   xmlns:inkscape="http://www.inkscape.org/namespaces/inkscape"
   xmlns:sodipodi="http://sodipodi.sourceforge.net/DTD/sodipodi-0.dtd"
   xmlns="http://www.w3.org/2000/svg"
   xmlns:svg="http://www.w3.org/2000/svg">
  <sodipodi:namedview
     id="namedview7"
     pagecolor="#ffffff"
     bordercolor="#666666"
     borderopacity="1.0"
     inkscape:pageshadow="2"
     inkscape:pageopacity="0.0"
     inkscape:pagecheckerboard="0"
     inkscape:document-units="mm"
     showgrid="false"
     units="px"
     inkscape:zoom="0.19442866"
     inkscape:cx="-475.75291"
     inkscape:cy="717.48681"
     inkscape:window-width="2560"
     inkscape:window-height="1387"
     inkscape:window-x="1912"
     inkscape:window-y="-8"
     inkscape:window-maximized="1"
     inkscape:current-layer="layer1" />
  <defs
     id="defs2" />
  <g
     inkscape:label="Layer 1"
     inkscape:groupmode="layer"
     id="layer1">
    <rect
       style="fill:#006994;fill-opacity:1;stroke:#000000;stroke-width:3.54766;stroke-linecap:square;stroke-linejoin:miter;stroke-miterlimit:4;stroke-dasharray:none;stroke-opacity:1;paint-order:markers fill stroke"
       id="rect890-9"
       width="188.03906"
       height="188.03937"
       x="-94.011452"
       y="97.559113"
       transform="matrix(0.70707698,-0.70713658,0.70707698,0.70713658,0,0)" />
    <rect
       style="fill:#006994;fill-opacity:1;stroke:#000000;stroke-width:4.16427;stroke-linecap:square;stroke-linejoin:miter;stroke-miterlimit:4;stroke-dasharray:none;stroke-opacity:1;paint-order:markers fill stroke"
       id="rect890-8-3"
       width="220.72208"
       height="220.72244"
       x="25.111338"
       y="25.111155"
       transform="matrix(1,-4.2143564e-5,-4.2143564e-5,1,0,0)" />
    <path
       d="m 213.45689,118.01236 -8.53711,-2.84544 V 76.016368 A 16.554888,16.554888 0 0 0 188.38332,59.479907 h -42.99479 v -9.92187 a 9.921875,9.921875 0 0 0 -19.84375,0 v 9.92187 H 82.550012 a 16.554888,16.554888 0 0 0 -16.53646,16.536461 v 39.150552 l -8.53792,2.84583 a 16.516028,16.516028 0 0 0 -11.30583,15.68783 v 28.30537 a 9.9128461,9.9128461 0 0 0 0.38192,2.72593 c 13.50615,47.27303 73.319158,63.38881 85.172428,66.13937 a 16.655066,16.655066 0 0 0 7.48501,0 c 11.85328,-2.75056 71.66632,-18.86634 85.17245,-66.13937 a 9.9128461,9.9128461 0 0 0 0.38192,-2.72593 V 133.70058 A 16.516615,16.516615 0 0 0 213.45689,118.01236 Z M 85.857302,79.323658 H 185.07603 V 108.55234 L 140.69566,93.759168 a 16.518773,16.518773 0 0 0 -4.72052,-0.82278 c -0.16956,-0.008 -0.3369,-0.0258 -0.50849,-0.0258 -0.17219,0 -0.33994,0.0174 -0.50991,0.0258 a 16.532407,16.532407 0 0 0 -4.71991,0.82278 L 85.857302,108.55234 Z M 204.91978,160.54851 c -11.13304,35.19165 -60.74565,48.69939 -69.45313,50.81571 -8.70748,-2.11631 -58.320058,-15.62405 -69.453098,-50.81571 v -24.46434 l 12.86138,-4.28713 c 0.0121,-0.003 0.0238,-0.008 0.0359,-0.0122 l 46.633928,-15.54447 v 52.38011 a 9.921875,9.921875 0 0 0 19.84375,0 v -52.38011 l 46.63394,15.54451 c 0.0122,0.004 0.0238,0.008 0.036,0.0121 l 12.86134,4.28708 z"
       id="path2-9"
       style="fill:#ffffff;stroke:#000000;stroke-width:4.23333;stroke-linejoin:miter;stroke-miterlimit:4;stroke-dasharray:none;stroke-opacity:1" />
    <rect
       style="fill:#006994;fill-opacity:1;stroke:#000000;stroke-width:3.54766;stroke-linecap:square;stroke-linejoin:miter;stroke-miterlimit:4;stroke-dasharray:none;stroke-opacity:1;paint-order:markers fill stroke"
       id="rect890-9-5"
       width="188.03906"
       height="188.03937"
       x="20.027813"
       y="402.02417"
       transform="matrix(0.70707698,-0.70713658,0.70707698,0.70713658,0,0)" />
    <rect
       style="fill:#bc3fbc;fill-opacity:1;stroke:#000000;stroke-width:4.16427;stroke-linecap:square;stroke-linejoin:miter;stroke-miterlimit:4;stroke-dasharray:none;stroke-opacity:1;paint-order:markers fill stroke"
       id="rect890-8-3-0"
       width="220.72208"
       height="220.72244"
       x="321.0318"
       y="159.78069"
       transform="matrix(1,-4.2143564e-5,-4.2143564e-5,1,0,0)" />
    <path
       d="m 509.37167,252.66941 -8.53711,-2.84544 V 210.67342 A 16.554888,16.554888 0 0 0 484.2981,194.13696 h -42.99479 v -9.92187 a 9.921875,9.921875 0 0 0 -19.84375,0 v 9.92187 h -42.99477 a 16.554888,16.554888 0 0 0 -16.53646,16.53646 v 39.15055 l -8.53792,2.84583 a 16.516028,16.516028 0 0 0 -11.30583,15.68783 V 296.663 a 9.9128461,9.9128461 0 0 0 0.38192,2.72593 c 13.50615,47.27303 73.31916,63.38881 85.17243,66.13937 a 16.655066,16.655066 0 0 0 7.48501,0 c 11.85328,-2.75056 71.66632,-18.86634 85.17245,-66.13937 a 9.9128461,9.9128461 0 0 0 0.38192,-2.72593 v -28.30537 a 16.516615,16.516615 0 0 0 -11.30664,-15.68822 z m -127.59959,-38.6887 h 99.21873 v 29.22868 l -44.38037,-14.79317 a 16.518773,16.518773 0 0 0 -4.72052,-0.82278 c -0.16956,-0.008 -0.3369,-0.0258 -0.50849,-0.0258 -0.17219,0 -0.33994,0.0174 -0.50991,0.0258 a 16.532407,16.532407 0 0 0 -4.71991,0.82278 l -44.37953,14.79317 z m 119.06248,81.22485 c -11.13304,35.19165 -60.74565,48.69939 -69.45313,50.81571 -8.70748,-2.11631 -58.32006,-15.62405 -69.4531,-50.81571 v -24.46434 l 12.86138,-4.28713 c 0.0121,-0.003 0.0238,-0.008 0.0359,-0.0122 l 46.63393,-15.54447 v 52.38011 a 9.921875,9.921875 0 0 0 19.84375,0 v -52.38011 l 46.63394,15.54451 c 0.0122,0.004 0.0238,0.008 0.036,0.0121 l 12.86134,4.28708 z"
       id="path2-9-8"
       style="fill:#ffffff;stroke:#000000;stroke-width:4.23333;stroke-linejoin:miter;stroke-miterlimit:4;stroke-dasharray:none;stroke-opacity:1" />
    <rect
       style="fill:#bc3fbc;fill-opacity:1;stroke:#000000;stroke-width:3.54766;stroke-linecap:square;stroke-linejoin:miter;stroke-miterlimit:4;stroke-dasharray:none;stroke-opacity:1;paint-order:markers fill stroke"
       id="rect890-9-9"
       width="188.03906"
       height="188.03937"
       x="284.63391"
       y="112.39855"
       transform="matrix(0.70707698,-0.70713658,0.70707698,0.70713658,0,0)" />
    <rect
       style="fill:#006994;fill-opacity:1;stroke:#000000;stroke-width:4.16427;stroke-linecap:square;stroke-linejoin:miter;stroke-miterlimit:4;stroke-dasharray:none;stroke-opacity:1;paint-order:markers fill stroke"
       id="rect890-8-3-4"
       width="220.72208"
       height="220.72244"
       x="303.32455"
       y="-232.1376"
       transform="matrix(1,-4.2143564e-5,-4.2143564e-5,1,0,0)" />
    <path
       d="m 491.68094,-139.24811 -8.53711,-2.84544 v -39.15055 a 16.554888,16.554888 0 0 0 -16.53646,-16.53646 h -42.99479 v -9.92187 a 9.921875,9.921875 0 0 0 -19.84375,0 v 9.92187 h -42.99477 a 16.554888,16.554888 0 0 0 -16.53646,16.53646 v 39.15055 l -8.53792,2.84583 a 16.516028,16.516028 0 0 0 -11.30583,15.68783 v 28.305367 a 9.9128461,9.9128461 0 0 0 0.38192,2.72593 c 13.50615,47.27303 73.31916,63.38881 85.17243,66.13937 a 16.655066,16.655066 0 0 0 7.48501,0 c 11.85328,-2.75056 71.66632,-18.86634 85.17245,-66.13937 a 9.9128461,9.9128461 0 0 0 0.38192,-2.72593 v -28.305367 a 16.516615,16.516615 0 0 0 -11.30664,-15.68822 z m -127.59959,-38.6887 h 99.21873 v 29.22868 l -44.38037,-14.79317 a 16.518773,16.518773 0 0 0 -4.72052,-0.82278 c -0.16956,-0.008 -0.3369,-0.0258 -0.50849,-0.0258 -0.17219,0 -0.33994,0.0174 -0.50991,0.0258 a 16.532407,16.532407 0 0 0 -4.71991,0.82278 l -44.37953,14.79317 z m 119.06248,81.224847 c -11.13304,35.19165 -60.74565,48.69939 -69.45313,50.81571 -8.70748,-2.11631 -58.32006,-15.62405 -69.4531,-50.81571 V -121.1763 l 12.86138,-4.28713 c 0.0121,-0.003 0.0238,-0.008 0.0359,-0.0122 l 46.63393,-15.54447 v 52.380107 a 9.921875,9.921875 0 0 0 19.84375,0 V -141.0201 l 46.63394,15.54451 c 0.0122,0.004 0.0238,0.008 0.036,0.0121 l 12.86134,4.28708 z"
       id="path2-9-9"
       style="fill:#ffffff;stroke:#000000;stroke-width:4.23333;stroke-linejoin:miter;stroke-miterlimit:4;stroke-dasharray:none;stroke-opacity:1" />
    <rect
       style="fill:#bc3fbc;fill-opacity:1;stroke:#000000;stroke-width:3.54766;stroke-linecap:square;stroke-linejoin:miter;stroke-miterlimit:4;stroke-dasharray:none;stroke-opacity:1;paint-order:markers fill stroke"
       id="rect890-9-2"
       width="188.03906"
       height="188.03937"
       x="-271.56268"
       y="-291.76923"
       transform="matrix(0.70707698,-0.70713658,0.70707698,0.70713658,0,0)" />
    <rect
       style="fill:#bc3fbc;fill-opacity:1;stroke:#000000;stroke-width:4.16427;stroke-linecap:square;stroke-linejoin:miter;stroke-miterlimit:4;stroke-dasharray:none;stroke-opacity:1;paint-order:markers fill stroke"
       id="rect890-8-3-8"
       width="220.72208"
       height="220.72244"
       x="-375.72247"
       y="-124.66106"
       transform="matrix(1,-4.2143564e-5,-4.2143564e-5,1,0,0)" />
    <path
       d="m -187.37061,-31.742961 -8.53711,-2.84544 v -39.150552 a 16.554888,16.554888 0 0 0 -16.53646,-16.536461 h -42.99479 v -9.921866 a 9.921875,9.921875 0 0 0 -19.84375,0 v 9.921866 h -42.99476 a 16.554888,16.554888 0 0 0 -16.53646,16.536461 v 39.150552 l -8.53792,2.84583 a 16.516028,16.516028 0 0 0 -11.30583,15.68783 v 28.30537 a 9.9128461,9.9128461 0 0 0 0.38192,2.72593 c 13.50615,47.273029 73.31915,63.388809 85.17242,66.139369 a 16.655066,16.655066 0 0 0 7.48501,0 c 11.85328,-2.75056 71.66632,-18.86634 85.17245,-66.139369 a 9.9128461,9.9128461 0 0 0 0.38192,-2.72593 v -28.30537 a 16.516615,16.516615 0 0 0 -11.30664,-15.68822 z m -127.59958,-38.688702 h 99.21872 v 29.228682 l -44.38037,-14.793172 a 16.518773,16.518773 0 0 0 -4.72052,-0.82278 c -0.16956,-0.008 -0.3369,-0.0258 -0.50849,-0.0258 -0.17219,0 -0.33994,0.0174 -0.50991,0.0258 a 16.532407,16.532407 0 0 0 -4.71991,0.82278 l -44.37952,14.793172 z m 119.06247,81.224852 c -11.13304,35.191649 -60.74565,48.699389 -69.45313,50.815709 -8.70748,-2.11631 -58.32005,-15.62405 -69.45309,-50.815709 v -24.46434 l 12.86138,-4.28713 c 0.0121,-0.003 0.0238,-0.008 0.0359,-0.0122 l 46.63392,-15.54447 v 52.38011 a 9.921875,9.921875 0 0 0 19.84375,0 v -52.38011 l 46.63394,15.54451 c 0.0122,0.004 0.0238,0.008 0.036,0.0121 l 12.86134,4.28708 z"
       id="path2-9-6"
       style="fill:#ffffff;stroke:#000000;stroke-width:4.23333;stroke-linejoin:miter;stroke-miterlimit:4;stroke-dasharray:none;stroke-opacity:1" />
  </g>
</svg>
